<?xml version="1.0" encoding="UTF-8" standalone="no"?>
<!-- Created with Inkscape (http://www.inkscape.org/) -->

<svg
   xmlns:dc="http://purl.org/dc/elements/1.1/"
   xmlns:cc="http://creativecommons.org/ns#"
   xmlns:rdf="http://www.w3.org/1999/02/22-rdf-syntax-ns#"
   xmlns:svg="http://www.w3.org/2000/svg"
   xmlns="http://www.w3.org/2000/svg"
   xmlns:sodipodi="http://sodipodi.sourceforge.net/DTD/sodipodi-0.dtd"
   xmlns:inkscape="http://www.inkscape.org/namespaces/inkscape"
   sodipodi:docname="projekt 4.svg"
   inkscape:version="0.48.5 r10040"
   version="1.1"
   id="svg2"
   height="504.09265"
   width="1448.3989"
   inkscape:export-filename="D:\Grafika\Marpon\LGOO\logo2.png"
   inkscape:export-xdpi="7.6771603"
   inkscape:export-ydpi="7.6771603">
  <defs
     id="defs4">
    <linearGradient
       id="linearGradient6703">
      <stop
         style="stop-color:#ffffff;stop-opacity:1;"
         offset="0"
         id="stop6705" />
      <stop
         style="stop-color:#ffffff;stop-opacity:0.86231881;"
         offset="1"
         id="stop6707" />
    </linearGradient>
    <filter
       inkscape:label="Inner Shadow"
       inkscape:menu="Shadows and Glows"
       inkscape:menu-tooltip="Adds a colorizable drop shadow inside"
       color-interpolation-filters="sRGB"
       id="filter6604"
       x="0"
       y="0"
       width="1.2"
       height="1.2">
      <feGaussianBlur
         stdDeviation="4"
         result="result8"
         id="feGaussianBlur6606" />
      <feOffset
         dx="4"
         dy="4"
         result="result11"
         id="feOffset6608" />
      <feComposite
         result="result6"
         in="SourceGraphic"
         operator="in"
         in2="result11"
         id="feComposite6610" />
      <feFlood
         result="result10"
         in="result6"
         flood-opacity="1"
         flood-color="rgb(0,0,0)"
         id="feFlood6612" />
      <feBlend
         mode="normal"
         in="result6"
         in2="result10"
         id="feBlend6614" />
      <feComposite
         result="result2"
         operator="in"
         in2="SourceGraphic"
         id="feComposite6616" />
    </filter>
    <filter
       inkscape:label="Inner Shadow"
       inkscape:menu="Shadows and Glows"
       inkscape:menu-tooltip="Adds a colorizable drop shadow inside"
       color-interpolation-filters="sRGB"
       id="filter6618">
      <feGaussianBlur
         stdDeviation="4"
         result="result8"
         id="feGaussianBlur6620" />
      <feOffset
         dx="4"
         dy="4"
         result="result11"
         id="feOffset6622" />
      <feComposite
         result="result6"
         in="SourceGraphic"
         operator="in"
         in2="result11"
         id="feComposite6624" />
      <feFlood
         result="result10"
         in="result6"
         flood-opacity="1"
         flood-color="rgb(0,0,0)"
         id="feFlood6626" />
      <feBlend
         mode="normal"
         in="result6"
         in2="result10"
         id="feBlend6628" />
      <feComposite
         result="result2"
         operator="in"
         in2="SourceGraphic"
         id="feComposite6630" />
    </filter>
    <filter
       inkscape:label="Inner Shadow"
       inkscape:menu="Shadows and Glows"
       inkscape:menu-tooltip="Adds a colorizable drop shadow inside"
       color-interpolation-filters="sRGB"
       id="filter6632">
      <feGaussianBlur
         stdDeviation="4"
         result="result8"
         id="feGaussianBlur6634" />
      <feOffset
         dx="4"
         dy="4"
         result="result11"
         id="feOffset6636" />
      <feComposite
         result="result6"
         in="SourceGraphic"
         operator="in"
         in2="result11"
         id="feComposite6638" />
      <feFlood
         result="result10"
         in="result6"
         flood-opacity="1"
         flood-color="rgb(0,0,0)"
         id="feFlood6640" />
      <feBlend
         mode="normal"
         in="result6"
         in2="result10"
         id="feBlend6642" />
      <feComposite
         result="result2"
         operator="in"
         in2="SourceGraphic"
         id="feComposite6644" />
    </filter>
    <filter
       inkscape:label="Inner Shadow"
       inkscape:menu="Shadows and Glows"
       inkscape:menu-tooltip="Adds a colorizable drop shadow inside"
       color-interpolation-filters="sRGB"
       id="filter6646"
       x="-0.1"
       width="1.21">
      <feGaussianBlur
         stdDeviation="4 4"
         result="result8"
         id="feGaussianBlur6648" />
      <feOffset
         dx="4"
         dy="4"
         result="result11"
         id="feOffset6650" />
      <feComposite
         result="result6"
         in="SourceGraphic"
         operator="in"
         in2="result11"
         id="feComposite6652" />
      <feFlood
         result="result10"
         in="result6"
         flood-opacity="1"
         flood-color="rgb(0,0,0)"
         id="feFlood6654" />
      <feBlend
         mode="normal"
         in="result6"
         in2="result10"
         id="feBlend6656" />
      <feComposite
         result="result2"
         operator="in"
         in2="SourceGraphic"
         id="feComposite6658" />
    </filter>
    <filter
       inkscape:label="Inner Shadow"
       inkscape:menu="Shadows and Glows"
       inkscape:menu-tooltip="Adds a colorizable drop shadow inside"
       color-interpolation-filters="sRGB"
       id="filter6660">
      <feGaussianBlur
         stdDeviation="4"
         result="result8"
         id="feGaussianBlur6662" />
      <feOffset
         dx="4"
         dy="4"
         result="result11"
         id="feOffset6664" />
      <feComposite
         result="result6"
         in="SourceGraphic"
         operator="in"
         in2="result11"
         id="feComposite6666" />
      <feFlood
         result="result10"
         in="result6"
         flood-opacity="1"
         flood-color="rgb(0,0,0)"
         id="feFlood6668" />
      <feBlend
         mode="normal"
         in="result6"
         in2="result10"
         id="feBlend6670" />
      <feComposite
         result="result2"
         operator="in"
         in2="SourceGraphic"
         id="feComposite6672" />
    </filter>
    <filter
       inkscape:label="Inner Shadow"
       inkscape:menu="Shadows and Glows"
       inkscape:menu-tooltip="Adds a colorizable drop shadow inside"
       color-interpolation-filters="sRGB"
       id="filter6674">
      <feGaussianBlur
         stdDeviation="4"
         result="result8"
         id="feGaussianBlur6676" />
      <feOffset
         dx="4"
         dy="4"
         result="result11"
         id="feOffset6678" />
      <feComposite
         result="result6"
         in="SourceGraphic"
         operator="in"
         in2="result11"
         id="feComposite6680" />
      <feFlood
         result="result10"
         in="result6"
         flood-opacity="1"
         flood-color="rgb(0,0,0)"
         id="feFlood6682" />
      <feBlend
         mode="normal"
         in="result6"
         in2="result10"
         id="feBlend6684" />
      <feComposite
         result="result2"
         operator="in"
         in2="SourceGraphic"
         id="feComposite6686" />
    </filter>
    <filter
       inkscape:label="Inner Shadow"
       inkscape:menu="Shadows and Glows"
       inkscape:menu-tooltip="Adds a colorizable drop shadow inside"
       color-interpolation-filters="sRGB"
       id="filter6689">
      <feGaussianBlur
         stdDeviation="4"
         result="result8"
         id="feGaussianBlur6691" />
      <feOffset
         dx="4"
         dy="4"
         result="result11"
         id="feOffset6693" />
      <feComposite
         result="result6"
         in="SourceGraphic"
         operator="in"
         in2="result11"
         id="feComposite6695" />
      <feFlood
         result="result10"
         in="result6"
         flood-opacity="1"
         flood-color="rgb(0,0,0)"
         id="feFlood6697" />
      <feBlend
         mode="normal"
         in="result6"
         in2="result10"
         id="feBlend6699" />
      <feComposite
         result="result2"
         operator="in"
         in2="SourceGraphic"
         id="feComposite6701" />
    </filter>
    <filter
       inkscape:label="Fancy blur"
       inkscape:menu="Blurs"
       inkscape:menu-tooltip="Smooth colorized contour which allows desaturation and hue rotation"
       color-interpolation-filters="sRGB"
       id="filter6730">
      <feGaussianBlur
         stdDeviation="5"
         result="result1"
         id="feGaussianBlur6732" />
      <feComposite
         operator="arithmetic"
         k2="2"
         in="result1"
         in2="result1"
         id="feComposite6734"
         k1="0"
         k3="0"
         k4="0" />
    </filter>
    <clipPath
       clipPathUnits="userSpaceOnUse"
       id="clipPath6749">
      <path
         inkscape:connector-curvature="0"
         id="path6751"
         d="m 1590.4141,119.55774 -17.9923,0 c -10.5173,-0.13672 -18.288,2.38623 -23.3121,7.56886 -5.0244,5.1831 -7.5185,13.84763 -7.4823,25.99364 l 0,42.21264 c -2e-4,12.687 0.3458,28.66089 1.038,47.92172 0.6918,19.26105 1.7298,37.31098 3.114,54.14982 l -1.384,0.69201 c -2.4727,-6.51637 -5.5723,-14.33031 -9.2989,-23.44185 -3.7269,-9.11138 -7.778,-18.82835 -12.1534,-29.15094 l -53.6308,-123.52387 c -6.1922,-0.84315 -12.1463,-1.40541 -17.8626,-1.68677 -5.7163,-0.2809 -10.373,-0.41065 -13.9699,-0.38926 -3.8566,2.4e-4 -9.1187,0.25974 -15.7865,0.77851 -6.6678,0.51925 -12.3625,1.29776 -17.084,2.33554 l 0,235.28355 c 4.4692,0.84339 9.1114,1.40564 13.9267,1.68677 4.8152,0.28113 8.9384,0.41088 12.3697,0.38926 3.5177,0.0216 7.4679,-0.10814 11.8507,-0.38926 4.3826,-0.28114 8.8519,-0.84339 13.4077,-1.68677 l 0,-68.85504 c -0.022,-15.03673 -0.411,-32.19281 -1.1678,-51.46828 -0.757,-19.27524 -1.7517,-36.60431 -2.9843,-51.98728 l 1.038,-0.34601 c 2.4436,6.6824 5.3414,14.25126 8.6934,22.7066 3.3518,8.45564 7.0282,17.14901 11.0289,26.08014 l 46.2284,105.24375 c 2.8797,5.95153 6.4837,10.69417 11.6104,13.86509 8.3535,5.1667 17.7454,6.8844 28.6625,6.83706 3.8636,0 9.1978,-0.25951 16.0028,-0.77852 6.8045,-0.51901 12.6578,-1.29752 17.5597,-2.33553 l 0,-235.28355 z m -449.4897,82.69524 c -0.4615,-27.95415 -8.4485,-48.68561 -23.9609,-62.19444 -15.5127,-13.50839 -35.7828,-20.22665 -60.8104,-20.1548 -12.9897,0.0147 -25.936,0.15883 -38.8391,0.43251 -12.9031,0.27416 -26.71453,0.59133 -41.43413,0.95151 l -2.422,2.42204 0,234.59154 c 4.6782,0.84339 9.5944,1.40564 14.7484,1.68677 5.154,0.28113 9.4647,0.41088 12.93203,0.38926 3.9213,0.0216 8.3617,-0.10814 13.3212,-0.38926 4.9593,-0.28114 9.7457,-0.84339 14.3592,-1.68677 l 0,-74.04512 27.3344,0 c 25.0276,-0.0215 45.2977,-6.8984 60.8104,-20.63056 15.5124,-13.73198 23.4994,-34.18951 23.9609,-61.37268 z m -112.1057,-40.1366 c 4.5845,0.16599 8.65,0.26691 12.1967,0.30275 3.5464,0.0362 7.093,0.0506 10.6396,0.0433 13.3283,0.64175 22.2235,5.24073 26.6857,13.79696 4.4619,8.5566 6.5235,17.22114 6.1848,25.99364 0.3387,8.9242 -1.7229,17.63199 -6.1848,26.12339 -4.4622,8.49167 -13.3574,13.0474 -26.6857,13.66721 -2.0112,0.007 -5.082,0.0794 -9.2123,0.21627 -4.1306,0.13707 -8.6719,0.29566 -13.624,0.47574 z m -98.69533,32.87049 c -0.4976,-25.98624 -8.499,-45.03093 -24.0042,-57.13411 -15.5055,-12.10274 -35.5305,-18.08574 -60.0751,-17.94902 -13.1051,0.0147 -26.5128,0.15883 -40.2231,0.43251 -13.7105,0.27416 -27.9832,0.59133 -42.8182,0.95151 l -2.422,2.42204 0,234.59154 c 4.6638,0.84339 9.5223,1.40564 14.5755,1.68677 5.053,0.28113 9.306,0.41088 12.7589,0.38926 3.8997,0.0216 8.2969,-0.10814 13.1915,-0.38926 4.8944,-0.28114 9.7241,-0.84339 14.4889,-1.68677 l 0,-86.50131 14.1862,0 c 9.1402,0.15867 15.8585,2.26354 20.1548,6.3146 4.2961,4.05122 7.3814,9.09713 9.2557,15.13773 l 12.4562,36.33054 c 3.3373,10.56039 7.3885,18.50408 12.1534,23.83111 4.7646,5.32704 12.0163,7.99416 21.7551,8.00138 7.4533,-0.0937 14.5176,-1.63632 21.1928,-4.62783 6.6748,-2.9915 11.8361,-6.86964 15.4837,-11.63442 -3.8351,-2.99149 -7.2374,-6.69663 -10.2071,-11.11543 -2.9701,-4.41874 -5.3345,-9.24839 -7.0931,-14.48896 l -10.3802,-29.41044 c -2.5592,-7.53275 -6.0048,-14.09242 -10.3369,-19.67905 -4.3324,-5.58645 -9.7676,-9.63759 -16.3055,-12.15343 10.3872,-3.87084 19.8879,-11.18019 28.5022,-21.92809 8.6139,-10.74765 13.184,-24.54459 13.7105,-41.39087 z m -114.5278,-33.5625 c 4.8729,0.16599 9.4862,0.26691 13.8402,0.30275 4.3538,0.0362 8.2752,0.0507 11.7642,0.0433 12.8597,0.2597 21.5675,3.54675 26.1234,9.86115 4.5556,6.31477 6.6893,14.09988 6.4011,23.35535 0.2882,9.11883 -1.8455,16.91836 -6.4011,23.3986 -4.5559,6.48052 -13.2637,9.86849 -26.1234,10.16391 -2.3645,0.007 -5.8534,0.0794 -10.4667,0.21626 -4.6134,0.13709 -9.6593,0.29568 -15.1377,0.47575 z m -218.5646,147.39822 49.1328,0 c 1.7947,0.007 3.914,-0.007 6.3578,-0.0433 2.4435,-0.036 4.8223,-0.13691 7.1364,-0.30274 l 6.5741,22.83634 c 3.3085,11.69931 7.5038,19.70067 12.5859,24.00411 5.0818,4.30344 11.9586,6.33622 20.6306,6.09835 5.3917,-0.0144 11.0431,-0.5911 16.9542,-1.73003 5.9107,-1.13894 10.8701,-2.75363 14.8783,-4.84407 l -74.7372,-232.51551 c -4.5486,-0.85757 -9.8108,-1.4775 -15.7865,-1.85979 -5.9759,-0.38181 -11.3245,-0.56923 -16.046,-0.56225 -4.8658,2.4e-4 -10.2721,0.17324 -16.219,0.519 -5.947,0.34624 -11.2668,0.86525 -15.9594,1.55703 l -76.1212,232.16951 1.73,2.76804 c 3.4601,1.21822 7.6986,2.15532 12.7157,2.81129 5.0171,0.65596 9.7747,0.98755 14.2727,0.99476 4.1665,0.0216 8.2032,-0.10813 12.1102,-0.38926 3.907,-0.28113 7.5977,-0.84339 11.0722,-1.68677 l 14.8782,-50.17075 c 2.285,0.16584 4.635,0.26676 7.0499,0.30275 2.4147,0.0361 4.6782,0.0505 6.7903,0.0432 z m 6.9201,-70.23906 c 2.7464,-9.86823 5.7306,-20.83947 8.9529,-32.91376 3.2221,-12.07398 5.7739,-23.13171 7.6554,-33.17323 l 2.076,0 c 3.0202,11.7283 6.2352,23.99706 9.6449,36.8063 3.4095,12.80954 6.5379,24.29978 9.3854,34.47077 l 5.8821,21.45232 c -2.1194,-0.0143 -4.282,-0.072 -6.4876,-0.173 -2.2059,-0.10083 -4.1954,-0.1585 -5.9686,-0.173 l -25.2584,0 c -1.9608,0.0145 -4.181,0.0722 -6.6606,0.173 -2.4798,0.10101 -4.873,0.15867 -7.1796,0.173 z m -359.5139,119.0258 c 4.0871,1.02359 8.6285,1.74443 13.6239,2.16253 4.9954,0.41809 9.7963,0.61992 14.4025,0.60551 4.1448,0.0144 8.2248,-0.10091 12.2399,-0.34601 4.0151,-0.24509 8.0086,-0.70643 11.9805,-1.38402 l 5.19,-96.18945 c 0.7208,-12.65071 1.3552,-26.18815 1.9031,-40.61237 0.5477,-14.42394 0.8361,-27.52887 0.865,-39.31483 l 2.422,0 33.9085,140.82412 c 4.3827,0.69205 9.2844,1.21105 14.7053,1.55702 5.4206,0.34603 9.9763,0.51904 13.6672,0.51901 4.0077,4e-5 8.7076,-0.17297 14.0997,-0.51901 5.3917,-0.34598 10.2646,-0.86498 14.6187,-1.55702 l 34.2545,-140.82412 2.076,0 c 0.2017,11.78597 0.5765,24.8909 1.1246,39.31484 0.5476,14.42422 1.0954,27.96166 1.6435,40.61236 l 4.3194,76.47567 c 0.1978,6.71909 1.6968,12.37245 5.9557,16.27597 4.8706,4.46422 11.5463,5.18523 19.1353,5.16784 4.6204,0.0144 9.4789,-0.18742 14.5755,-0.60551 5.0961,-0.41809 9.6951,-1.13893 13.797,-2.16253 l -18.3383,-235.28355 c -6.077,-1.02337 -12.5213,-1.74422 -19.3331,-2.16254 -6.8122,-0.41785 -12.824,-0.61969 -18.0355,-0.6055 -5.284,-0.0142 -10.9786,0.18766 -17.084,0.60551 -6.1057,0.41833 -12.0599,1.13917 -17.8625,2.16253 l -20.7603,84.77128 c -1.0959,5.16139 -3.0566,14.47469 -5.8821,27.93992 -2.8259,13.46549 -5.1326,25.02781 -6.9201,34.68702 l -2.422,0 c -1.6365,-9.65922 -3.9,-21.22155 -6.7904,-34.68703 -2.8907,-13.46523 -4.8947,-22.77853 -6.0118,-27.93991 l -20.4144,-84.77128 c -5.9759,-1.02337 -12.0165,-1.74422 -18.122,-2.16254 -6.1056,-0.41785 -11.7138,-0.61969 -16.8245,-0.6055 -5.3848,-0.0142 -11.4831,0.18766 -18.295,0.60551 -6.812,0.41833 -13.1699,1.13917 -19.0735,2.16253 z M 1276.8125,121.48363 c -31.104,0.29249 -57.5957,11.34585 -79.4375,33.1875 -21.8422,21.84228 -32.7502,48.18868 -32.75,79 l 0,0.4375 c -2e-4,30.51964 10.9078,56.8348 32.75,78.96875 21.8418,22.13427 48.3335,33.18763 79.4375,33.1875 23.6356,1.3e-4 45.1792,-7.00316 64.625,-21.0625 19.4452,-14.05905 33.2013,-32.17363 41.2813,-54.3125 3.5873,-11.36584 5.3746,-20.32377 5.375,-26.90625 0.3008,-2.69293 -0.2845,-4.78837 -1.7813,-6.28125 -1.4976,-1.49242 -3.3842,-2.24976 -5.625,-2.25 -2.2417,2.4e-4 -8.2787,2.98925 -18.1563,8.96875 l -33.6562,20.1875 c -12.5715,7.47715 -19.1569,11.53179 -19.75,12.125 l -48.4688,-26.9375 0,-56.09375 73.1563,-42.15625 c 2.6928,-2.0903 4.0309,-4.49401 4.0313,-7.1875 -4e-4,-2.69283 -1.3385,-4.95119 -4.0313,-6.75 -7.4773,-4.78345 -16.4665,-8.66604 -26.9375,-11.65625 -10.4717,-2.98951 -20.4861,-4.4684 -30.0625,-4.46875 z m -119.375,159.28125 -7.4375,7.4375 c -4.6116,21.2135 9.1705,52.01426 0,71.625 30.5022,15.20479 68.1323,3.05257 72.875,0 l 6.8125,-6.8125 c -16.4513,-6.58214 -30.965,-16.15662 -43.5313,-28.71875 -12.5668,-12.56184 -22.1367,-27.07084 -28.7187,-43.53125 z"
         style="font-size:346.00967407px;font-style:normal;font-variant:normal;font-weight:bold;font-stretch:normal;text-align:start;line-height:125%;letter-spacing:0px;word-spacing:0px;writing-mode:lr-tb;text-anchor:start;fill:#ffffff;fill-opacity:1;stroke:none;font-family:Signika;-inkscape-font-specification:Signika Bold" />
    </clipPath>
  </defs>
  <sodipodi:namedview
     id="base"
     pagecolor="#ffffff"
     bordercolor="#666666"
     borderopacity="1.0"
     inkscape:pageopacity="0.0"
     inkscape:pageshadow="2"
     inkscape:zoom="0.40301096"
     inkscape:cx="991.50455"
     inkscape:cy="206.00893"
     inkscape:document-units="px"
     inkscape:current-layer="layer1"
     showgrid="false"
     fit-margin-top="50"
     fit-margin-left="50"
     fit-margin-right="50"
     fit-margin-bottom="50"
     inkscape:window-width="1920"
     inkscape:window-height="1057"
     inkscape:window-x="-8"
     inkscape:window-y="-8"
     inkscape:window-maximized="1"
     inkscape:snap-page="true"
     inkscape:snap-global="false"
     showguides="false"
     inkscape:guide-bbox="true"
     inkscape:snap-bbox="true"
     inkscape:object-paths="true"
     inkscape:snap-intersection-paths="true"
     inkscape:object-nodes="false">
    <sodipodi:guide
       orientation="0,1"
       position="1224.7315,462.70069"
       id="guide3015" />
    <sodipodi:guide
       orientation="0,1"
       position="1216.0132,222.25146"
       id="guide3017" />
  </sodipodi:namedview>
  <metadata
     id="metadata7">
    <rdf:RDF>
      <cc:Work
         rdf:about="">
        <dc:format>image/svg+xml</dc:format>
        <dc:type
           rdf:resource="http://purl.org/dc/dcmitype/StillImage" />
        <dc:title></dc:title>
      </cc:Work>
    </rdf:RDF>
  </metadata>
  <g
     inkscape:label="Layer 1"
     inkscape:groupmode="layer"
     id="layer1"
     transform="translate(-1021.1055,-325.52828)">
    <text
       xml:space="preserve"
       style="font-size:40px;font-style:normal;font-variant:normal;font-weight:normal;font-stretch:normal;line-height:125%;letter-spacing:0px;word-spacing:0px;writing-mode:lr-tb;fill:#000000;fill-opacity:1;stroke:none;font-family:etbuilder;-inkscape-font-specification:etbuilder"
       x="1502.7928"
       y="1158.8318"
       id="text3788"
       sodipodi:linespacing="125%"
       transform="translate(0,52.362183)"><tspan
         sodipodi:role="line"
         id="tspan3790"
         x="1502.7928"
         y="1158.8318">M</tspan></text>
    <text
       xml:space="preserve"
       style="font-size:40px;font-style:normal;font-variant:normal;font-weight:normal;font-stretch:normal;line-height:125%;letter-spacing:0px;word-spacing:0px;writing-mode:lr-tb;fill:#000000;fill-opacity:1;stroke:none;font-family:etbuilder;-inkscape-font-specification:etbuilder"
       x="889.84882"
       y="874.73004"
       id="text3792"
       sodipodi:linespacing="125%"
       transform="translate(0,52.362183)"><tspan
         sodipodi:role="line"
         id="tspan3794"
         x="889.84882"
         y="874.73004">M</tspan></text>
    <path
       inkscape:connector-curvature="0"
       style="font-size:346.00967407px;font-style:normal;font-variant:normal;font-weight:bold;font-stretch:normal;text-align:start;line-height:125%;letter-spacing:0px;word-spacing:0px;writing-mode:lr-tb;text-anchor:start;fill:#383838;fill-opacity:1;stroke:none;font-family:Signika;-inkscape-font-specification:Signika Bold"
       d="m 2417.0824,375.53355 -17.9923,0 c -10.5173,-0.13672 -18.288,2.38623 -23.3121,7.56886 -5.0244,5.1831 -7.5185,13.84763 -7.4823,25.99364 l 0,42.21264 c -2e-4,12.687 0.3458,28.66089 1.038,47.92172 0.6918,19.26105 1.7298,37.31098 3.114,54.14982 l -1.384,0.69201 c -2.4727,-6.51637 -5.5723,-14.33031 -9.2989,-23.44185 -3.7269,-9.11138 -7.778,-18.82835 -12.1534,-29.15094 l -53.6308,-123.52387 c -6.1922,-0.84315 -12.1463,-1.40541 -17.8626,-1.68677 -5.7163,-0.2809 -10.373,-0.41065 -13.9699,-0.38926 -3.8566,2.4e-4 -9.1187,0.25974 -15.7865,0.77851 -6.6678,0.51925 -12.3625,1.29776 -17.084,2.33554 l 0,235.28355 c 4.4692,0.84339 9.1114,1.40564 13.9267,1.68677 4.8152,0.28113 8.9384,0.41088 12.3697,0.38926 3.5177,0.0216 7.4679,-0.10814 11.8507,-0.38926 4.3826,-0.28114 8.8519,-0.84339 13.4077,-1.68677 l 0,-68.85504 c -0.022,-15.03673 -0.411,-32.19281 -1.1678,-51.46828 -0.757,-19.27524 -1.7517,-36.60431 -2.9843,-51.98728 l 1.038,-0.34601 c 2.4436,6.6824 5.3414,14.25126 8.6934,22.7066 3.3518,8.45564 7.0282,17.14901 11.0289,26.08014 l 46.2284,105.24375 c 2.8797,5.95153 6.4837,10.69417 11.6104,13.86509 8.3535,5.1667 17.7454,6.8844 28.6625,6.83706 3.8636,0 9.1978,-0.25951 16.0028,-0.77852 6.8045,-0.51901 12.6578,-1.29752 17.5597,-2.33553 l 0,-235.28355 z m -449.4897,82.69524 c -0.4615,-27.95415 -8.4485,-48.68561 -23.9609,-62.19444 -15.5127,-13.50839 -35.7828,-20.22665 -60.8104,-20.1548 -12.9897,0.0147 -25.936,0.15883 -38.8391,0.43251 -12.9031,0.27416 -26.7145,0.59133 -41.4341,0.95151 l -2.422,2.42204 0,234.59154 c 4.6782,0.84339 9.5944,1.40564 14.7484,1.68677 5.154,0.28113 9.4647,0.41088 12.932,0.38926 3.9213,0.0216 8.3617,-0.10814 13.3212,-0.38926 4.9593,-0.28114 9.7457,-0.84339 14.3592,-1.68677 l 0,-74.04512 27.3344,0 c 25.0276,-0.0215 45.2977,-6.8984 60.8104,-20.63056 15.5124,-13.73198 23.4994,-34.18951 23.9609,-61.37268 z m -112.1057,-40.1366 c 4.5845,0.16599 8.65,0.26691 12.1967,0.30275 3.5464,0.0362 7.093,0.0506 10.6396,0.0433 13.3283,0.64175 22.2235,5.24073 26.6857,13.79696 4.4619,8.5566 6.5235,17.22114 6.1848,25.99364 0.3387,8.9242 -1.7229,17.63199 -6.1848,26.12339 -4.4622,8.49167 -13.3574,13.0474 -26.6857,13.66721 -2.0112,0.007 -5.082,0.0794 -9.2123,0.21627 -4.1306,0.13707 -8.6719,0.29566 -13.624,0.47574 z m -98.6953,32.87049 c -0.4976,-25.98624 -8.499,-45.03093 -24.0042,-57.13411 -15.5055,-12.10274 -35.5305,-18.08574 -60.0751,-17.94902 -13.1051,0.0147 -26.5128,0.15883 -40.2231,0.43251 -13.7105,0.27416 -27.9832,0.59133 -42.8182,0.95151 l -2.422,2.42204 0,234.59154 c 4.6638,0.84339 9.5223,1.40564 14.5755,1.68677 5.053,0.28113 9.306,0.41088 12.7589,0.38926 3.8997,0.0216 8.2969,-0.10814 13.1915,-0.38926 4.8944,-0.28114 9.7241,-0.84339 14.4889,-1.68677 l 0,-86.50131 14.1862,0 c 9.1402,0.15867 15.8585,2.26354 20.1548,6.3146 4.2961,4.05122 7.3814,9.09713 9.2557,15.13773 l 12.4562,36.33054 c 3.3373,10.56039 7.3885,18.50408 12.1534,23.83111 4.7646,5.32704 12.0163,7.99416 21.7551,8.00138 7.4533,-0.0937 14.5176,-1.63632 21.1928,-4.62783 6.6748,-2.9915 11.8361,-6.86964 15.4837,-11.63442 -3.8351,-2.99149 -7.2374,-6.69663 -10.2071,-11.11543 -2.9701,-4.41874 -5.3345,-9.24839 -7.0931,-14.48896 l -10.3802,-29.41044 c -2.5592,-7.53275 -6.0048,-14.09242 -10.3369,-19.67905 -4.3324,-5.58645 -9.7676,-9.63759 -16.3055,-12.15343 10.3872,-3.87084 19.8879,-11.18019 28.5022,-21.92809 8.6139,-10.74765 13.184,-24.54459 13.7105,-41.39087 z m -114.5278,-33.5625 c 4.8729,0.16599 9.4862,0.26691 13.8402,0.30275 4.3538,0.0362 8.2752,0.0507 11.7642,0.0433 12.8597,0.2597 21.5675,3.54675 26.1234,9.86115 4.5556,6.31477 6.6893,14.09988 6.4011,23.35535 0.2882,9.11883 -1.8455,16.91836 -6.4011,23.3986 -4.5559,6.48052 -13.2637,9.86849 -26.1234,10.16391 -2.3645,0.007 -5.8534,0.0794 -10.4667,0.21626 -4.6134,0.13709 -9.6593,0.29568 -15.1377,0.47575 z m -218.5646,147.39822 49.1328,0 c 1.7947,0.007 3.914,-0.007 6.3578,-0.0433 2.4435,-0.036 4.8223,-0.13691 7.1364,-0.30274 l 6.5741,22.83634 c 3.3085,11.69931 7.5038,19.70067 12.5859,24.00411 5.0818,4.30344 11.9586,6.33622 20.6306,6.09835 5.3917,-0.0144 11.0431,-0.5911 16.9542,-1.73003 5.9107,-1.13894 10.8701,-2.75363 14.8783,-4.84407 l -74.7372,-232.51551 c -4.5486,-0.85757 -9.8108,-1.4775 -15.7865,-1.85979 -5.9759,-0.38181 -11.3245,-0.56923 -16.046,-0.56225 -4.8658,2.4e-4 -10.2721,0.17324 -16.219,0.519 -5.947,0.34624 -11.2668,0.86525 -15.9594,1.55703 l -76.1212,232.16951 1.73,2.76804 c 3.4601,1.21822 7.6986,2.15532 12.7157,2.81129 5.0171,0.65596 9.7747,0.98755 14.2727,0.99476 4.1665,0.0216 8.2032,-0.10813 12.1102,-0.38926 3.907,-0.28113 7.5977,-0.84339 11.0722,-1.68677 l 14.8782,-50.17075 c 2.285,0.16584 4.635,0.26676 7.0499,0.30275 2.4147,0.0361 4.6782,0.0505 6.7903,0.0432 z m 6.9201,-70.23906 c 2.7464,-9.86823 5.7306,-20.83947 8.9529,-32.91376 3.2221,-12.07398 5.7739,-23.13171 7.6554,-33.17323 l 2.076,0 c 3.0202,11.7283 6.2352,23.99706 9.6449,36.8063 3.4095,12.80954 6.5379,24.29978 9.3854,34.47077 l 5.8821,21.45232 c -2.1194,-0.0143 -4.282,-0.072 -6.4876,-0.173 -2.2059,-0.10083 -4.1954,-0.1585 -5.9686,-0.173 l -25.2584,0 c -1.9608,0.0145 -4.181,0.0722 -6.6606,0.173 -2.4798,0.10101 -4.873,0.15867 -7.1796,0.173 z m -359.5139,119.0258 c 4.0871,1.02359 8.6285,1.74443 13.6239,2.16253 4.9954,0.41809 9.7963,0.61992 14.4025,0.60551 4.1448,0.0144 8.2248,-0.10091 12.2399,-0.34601 4.0151,-0.24509 8.0086,-0.70643 11.9805,-1.38402 l 5.19,-96.18945 c 0.7208,-12.65071 1.3552,-26.18815 1.9031,-40.61237 0.5477,-14.42394 0.8361,-27.52887 0.865,-39.31483 l 2.422,0 33.9085,140.82412 c 4.3827,0.69205 9.2844,1.21105 14.7053,1.55702 5.4206,0.34603 9.9763,0.51904 13.6672,0.51901 4.0077,4e-5 8.7076,-0.17297 14.0997,-0.51901 5.3917,-0.34598 10.2646,-0.86498 14.6187,-1.55702 l 34.2545,-140.82412 2.076,0 c 0.2017,11.78597 0.5765,24.8909 1.1246,39.31484 0.5476,14.42422 1.0954,27.96166 1.6435,40.61236 l 4.3194,76.47567 c 0.1978,6.71909 1.6968,12.37245 5.9557,16.27597 4.8706,4.46422 11.5463,5.18523 19.1353,5.16784 4.6204,0.0144 9.4789,-0.18742 14.5755,-0.60551 5.0961,-0.41809 9.6951,-1.13893 13.797,-2.16253 L 1303.275,378.30159 c -6.077,-1.02337 -12.5213,-1.74422 -19.3331,-2.16254 -6.8122,-0.41785 -12.824,-0.61969 -18.0355,-0.6055 -5.284,-0.0142 -10.9786,0.18766 -17.084,0.60551 -6.1057,0.41833 -12.0599,1.13917 -17.8625,2.16253 l -20.7603,84.77128 c -1.0959,5.16139 -3.0566,14.47469 -5.8821,27.93992 -2.8259,13.46549 -5.1326,25.02781 -6.9201,34.68702 l -2.422,0 c -1.6365,-9.65922 -3.9,-21.22155 -6.7904,-34.68703 -2.8907,-13.46523 -4.8947,-22.77853 -6.0118,-27.93991 l -20.4144,-84.77128 c -5.9759,-1.02337 -12.0165,-1.74422 -18.122,-2.16254 -6.1056,-0.41785 -11.7138,-0.61969 -16.8245,-0.6055 -5.3848,-0.0142 -11.4831,0.18766 -18.295,0.60551 -6.812,0.41833 -13.1699,1.13917 -19.0735,2.16253 z m 1032.3753,-236.1257 c -31.104,0.29249 -57.5957,11.34585 -79.4375,33.1875 -21.8422,21.84228 -32.7502,48.18868 -32.75,79 l 0,0.4375 c -2e-4,30.51964 10.9078,56.8348 32.75,78.96875 21.8418,22.13427 48.3335,33.18763 79.4375,33.1875 23.6356,1.3e-4 45.1792,-7.00316 64.625,-21.0625 19.4452,-14.05905 33.2013,-32.17363 41.2813,-54.3125 3.5873,-11.36584 5.3746,-20.32377 5.375,-26.90625 0.3008,-2.69293 -0.2845,-4.78837 -1.7813,-6.28125 -1.4976,-1.49242 -3.3842,-2.24976 -5.625,-2.25 -2.2417,2.4e-4 -8.2787,2.98925 -18.1563,8.96875 l -33.6562,20.1875 c -12.5715,7.47715 -19.1569,11.53179 -19.75,12.125 l -48.4688,-26.9375 0,-56.09375 73.1563,-42.15625 c 2.6928,-2.0903 4.0309,-4.49401 4.0313,-7.1875 -4e-4,-2.69283 -1.3385,-4.95119 -4.0313,-6.75 -7.4773,-4.78345 -16.4665,-8.66604 -26.9375,-11.65625 -10.4717,-2.98951 -20.4861,-4.4684 -30.0625,-4.46875 z m -119.375,159.28125 -7.4375,7.4375 c -4.6116,21.2135 9.1705,52.01426 0,71.625 30.5022,15.20479 68.1323,3.05257 72.875,0 l 6.8125,-6.8125 c -16.4513,-6.58214 -30.965,-16.15662 -43.5313,-28.71875 -12.5668,-12.56184 -22.1367,-27.07084 -28.7187,-43.53125 z"
       id="path3033" />
    <path
       style="fill:#ffffff;fill-opacity:0.07250755;fill-rule:nonzero;stroke:none;filter:url(#filter6730)"
       d="m 0,0 0,486.875 1837.2812,0 0,-486.875 L 0,0 z m 300.15625,119.5625 c 5.1107,-0.0142 10.7069,0.1759 16.8125,0.59375 6.1055,0.41832 12.1491,1.13288 18.125,2.15625 L 355.5,207.09375 c 1.1171,5.16138 3.14055,14.47227 6.03125,27.9375 2.8904,13.46548 5.14475,25.02828 6.78125,34.6875 l 2.40625,0 c 1.7875,-9.65921 4.1116,-21.22201 6.9375,-34.6875 2.8255,-13.46523 4.7791,-22.77611 5.875,-27.9375 l 20.75,-84.78125 c 5.8026,-1.02336 11.7693,-1.73792 17.875,-2.15625 6.1054,-0.41785 11.80975,-0.60795 17.09375,-0.59375 5.2115,-0.0142 11.21905,0.1759 18.03125,0.59375 6.8118,0.41832 13.2355,1.13288 19.3125,2.15625 l 18.34375,235.28125 c -4.1019,1.0236 -8.68515,1.76941 -13.78125,2.1875 -5.0966,0.41809 -9.97335,0.60815 -14.59375,0.59375 -7.589,0.0174 -14.2544,-0.69203 -19.125,-5.15625 -4.2589,-3.90352 -5.77095,-9.56216 -5.96875,-16.28125 l -4.3125,-76.46875 c -0.5481,-12.6507 -1.0774,-26.20078 -1.625,-40.625 -0.5481,-14.42394 -0.9233,-27.52653 -1.125,-39.3125 l -2.09375,0 -34.25,140.8125 c -4.3541,0.69204 -9.2333,1.21652 -14.625,1.5625 -5.3921,0.34604 -10.08605,0.53129 -14.09375,0.53125 -3.6909,3e-5 -8.23565,-0.18522 -13.65625,-0.53125 -5.4209,-0.34597 -10.33605,-0.87045 -14.71875,-1.5625 l -33.90625,-140.8125 -2.40625,0 c -0.0289,11.78596 -0.3273,24.88856 -0.875,39.3125 -0.5479,14.42422 -1.18545,27.97429 -1.90625,40.625 l -5.1875,96.1875 c -3.9719,0.67759 -7.95365,1.12991 -11.96875,1.375 -4.0151,0.2451 -8.1052,0.35815 -12.25,0.34375 -4.6062,0.0144 -9.41085,-0.17566 -14.40625,-0.59375 -4.9954,-0.4181 -9.5379,-1.16391 -13.625,-2.1875 L 262.78125,122.3125 c 5.9036,-1.02336 12.2505,-1.73792 19.0625,-2.15625 6.8119,-0.41785 12.9277,-0.60795 18.3125,-0.59375 z m 1270.31255,0 c 0.6358,-0.0122 1.2801,-0.009 1.9374,0 l 18,0 2.4376,2.40625 0,235.28125 c -4.9019,1.03801 -10.758,1.82474 -17.5626,2.34375 -6.805,0.51901 -12.1363,0.78125 -16,0.78125 -10.9171,0.0473 -20.3027,-1.67705 -28.6562,-6.84375 -5.1267,-3.17092 -8.7453,-7.89222 -11.625,-13.84375 l -46.2188,-105.25 c -4.0006,-8.93113 -7.6794,-17.63811 -11.0312,-26.09375 -3.352,-8.45534 -6.2439,-16.0051 -8.6875,-22.6875 L 1452,186 c 1.2326,15.38297 2.243,32.69351 3,51.96875 0.7568,19.27547 1.1343,36.43202 1.1562,51.46875 l 0,68.875 c -4.5558,0.84338 -9.0236,1.40636 -13.4062,1.6875 -4.3828,0.28112 -8.3261,0.3966 -11.8438,0.375 -3.4313,0.0216 -7.5597,-0.0939 -12.375,-0.375 -4.8153,-0.28113 -9.4682,-0.84411 -13.9374,-1.6875 l 0,-235.28125 c 4.7214,-1.03778 10.4259,-1.8245 17.0937,-2.34375 6.6678,-0.51877 11.9246,-0.78101 15.7813,-0.78125 3.5969,-0.0214 8.2524,0.0941 13.9687,0.375 5.7163,0.28136 11.6828,0.84435 17.875,1.6875 L 1522.9375,245.5 c 4.3754,10.32259 8.4293,20.04487 12.1563,29.15625 3.7265,9.11154 6.8398,16.92113 9.3124,23.4375 l 1.375,-0.6875 c -1.3841,-16.83884 -2.4331,-34.8952 -3.125,-54.15625 -0.6921,-19.26083 -1.0314,-35.21925 -1.0312,-47.90625 l 0,-42.21875 c -0.036,-12.14601 2.4756,-20.8169 7.5,-26 4.7101,-4.85872 11.8056,-7.37899 21.3438,-7.5625 z m -945.75005,0.34375 c 4.7215,-0.007 10.05535,0.18069 16.03125,0.5625 5.9757,0.38229 11.23265,0.98618 15.78125,1.84375 l 74.75,232.53125 c -4.0082,2.09044 -8.9643,3.70481 -14.875,4.84375 -5.9111,1.13893 -11.57705,1.70435 -16.96875,1.71875 -8.672,0.23787 -15.5432,-1.79031 -20.625,-6.09375 -5.0821,-4.30344 -9.28525,-12.30069 -12.59375,-24 l -6.5625,-22.84375 c -2.3141,0.16583 -4.6815,0.2765 -7.125,0.3125 -2.4438,0.0363 -4.5803,0.0383 -6.375,0.0312 l -49.125,0 c -2.1121,0.007 -4.36655,0.005 -6.78125,-0.0312 -2.4149,-0.036 -4.7775,-0.14666 -7.0625,-0.3125 l -14.875,50.1875 c -3.4745,0.84338 -7.1555,1.40637 -11.0625,1.6875 -3.907,0.28113 -7.9585,0.3966 -12.125,0.375 -4.498,-0.007 -9.26415,-0.34404 -14.28125,-1 -5.0171,-0.65597 -9.2274,-1.59428 -12.6875,-2.8125 l -1.75,-2.75 76.125,-232.1875 c 4.6926,-0.69178 10.02175,-1.18501 15.96875,-1.53125 5.9469,-0.34576 11.35295,-0.53101 16.21875,-0.53125 z m 221.3125,0 c 24.5446,-0.13672 44.58825,5.83476 60.09375,17.9375 15.5052,12.10318 23.5024,31.17001 24,57.15625 -0.5265,16.84628 -5.10485,30.62735 -13.71875,41.375 -8.6143,10.7479 -18.1128,18.06666 -28.5,21.9375 6.5379,2.51584 11.9801,6.5698 16.3125,12.15625 4.3321,5.58663 7.78455,12.1235 10.34375,19.65625 l 10.375,29.4375 c 1.7586,5.24057 4.12365,10.05001 7.09375,14.46875 2.9697,4.4188 6.3524,8.13351 10.1875,11.125 -3.6476,4.76478 -8.79395,8.6335 -15.46875,11.625 -6.6752,2.99151 -13.7342,4.5313 -21.1875,4.625 -9.7388,-0.007 -16.9854,-2.67296 -21.75,-8 -4.7649,-5.32703 -8.81895,-13.25211 -12.15625,-23.8125 L 859.1875,293.25 c -1.8743,-6.0406 -4.9539,-11.07378 -9.25,-15.125 -4.2963,-4.05106 -11.01605,-6.15383 -20.15625,-6.3125 l -14.1875,0 0,86.5 c -4.7648,0.84338 -9.6056,1.40636 -14.5,1.6875 -4.8946,0.28112 -9.2878,0.3966 -13.1875,0.375 -3.4529,0.0216 -7.697,-0.0939 -12.75,-0.375 -5.0532,-0.28113 -9.8987,-0.84411 -14.5625,-1.6875 l 0,-234.59375 2.40625,-2.4375 c 14.835,-0.36018 29.102,-0.66334 42.8125,-0.9375 13.7103,-0.27368 27.11365,-0.4228 40.21875,-0.4375 z m 210.12495,0 c 25.0277,-0.0718 45.2999,6.64786 60.8126,20.15625 15.5124,13.50883 23.5072,34.23335 23.9687,62.1875 -0.4615,27.18317 -8.4563,47.64302 -23.9687,61.375 -15.5127,13.73216 -35.785,20.6035 -60.8126,20.625 l -27.3437,0 0,74.0625 c -4.6135,0.84338 -9.3845,1.40636 -14.3437,1.6875 -4.9596,0.28112 -9.4225,0.3966 -13.3438,0.375 -3.4673,0.0216 -7.75225,-0.0939 -12.90625,-0.375 -5.154,-0.28113 -10.0718,-0.84411 -14.75,-1.6875 l 0,-234.59375 2.40625,-2.4375 c 14.7196,-0.36018 28.5344,-0.66334 41.4375,-0.9375 12.9031,-0.27368 25.854,-0.4228 38.8437,-0.4375 z m 220.6563,1.5625 c 9.5764,3.5e-4 19.5908,1.47924 30.0625,4.46875 10.471,2.99021 19.4602,6.8728 26.9375,11.65625 2.6928,1.79881 4.0309,4.05717 4.0313,6.75 -4e-4,2.69349 -1.3385,5.0972 -4.0313,7.1875 l -73.1563,42.15625 0,56.09375 48.4688,26.9375 c 0.5931,-0.59321 7.1785,-4.64785 19.75,-12.125 l 33.6562,-20.1875 c 9.8777,-5.9795 15.9146,-8.96851 18.1563,-8.96875 2.2408,2.4e-4 4.1274,0.75758 5.625,2.25 1.4968,1.49288 2.082,3.58832 1.7813,6.28125 -4e-4,6.58248 -1.7877,15.54041 -5.375,26.90625 -8.08,22.13887 -21.8361,40.25345 -41.2813,54.3125 -19.4458,14.05934 -40.9894,21.06263 -64.625,21.0625 -31.104,1.3e-4 -57.5957,-11.05323 -79.4375,-33.1875 -21.8422,-22.13395 -32.7502,-48.44911 -32.75,-78.96875 l 0,-0.4375 c -2e-4,-30.81132 10.9078,-57.15772 32.75,-79 21.8418,-21.84165 48.3335,-32.89501 79.4375,-33.1875 z m -461.21875,39.96875 0,67.8125 c 5.4784,-0.18007 10.5116,-0.33166 15.125,-0.46875 4.6133,-0.13686 8.10425,-0.21175 10.46875,-0.21875 12.8597,-0.29542 21.5691,-3.70698 26.125,-10.1875 4.5556,-6.48024 6.69445,-14.25617 6.40625,-23.375 0.2882,-9.25547 -1.85065,-17.06023 -6.40625,-23.375 -4.5559,-6.3144 -13.2653,-9.58405 -26.125,-9.84375 -3.489,0.007 -7.3962,-0.0263 -11.75,-0.0625 -4.354,-0.0358 -8.97085,-0.11526 -13.84375,-0.28125 z m 213.21875,0.6875 0,80.625 c 4.9521,-0.18008 9.4944,-0.36293 13.625,-0.5 4.1303,-0.13687 7.2076,-0.21175 9.2187,-0.21875 13.3283,-0.61981 22.2254,-5.16458 26.6876,-13.65625 4.4619,-8.4914 6.5262,-17.2008 6.1874,-26.125 0.3388,-8.7725 -1.7255,-17.4434 -6.1874,-26 -4.4622,-8.55623 -13.3593,-13.1395 -26.6876,-13.78125 -3.5465,0.007 -7.1098,-0.0263 -10.6562,-0.0625 -3.5467,-0.0358 -7.603,-0.11526 -12.1875,-0.28125 z m -408.25,10.375 c -1.8815,10.04152 -4.43415,21.08227 -7.65625,33.15625 -3.2223,12.07429 -6.22235,23.06927 -8.96875,32.9375 L 596,265.21875 c 2.3066,-0.0143 4.7077,-0.0552 7.1875,-0.15625 2.4796,-0.1008 4.69545,-0.173 6.65625,-0.1875 l 25.25,0 c 1.7732,0.0145 3.76285,0.0867 5.96875,0.1875 2.2056,0.101 4.3806,0.14195 6.5,0.15625 l -5.90625,-21.4375 c -2.8475,-10.17099 -5.9655,-21.65921 -9.375,-34.46875 -3.4097,-12.80924 -6.63605,-25.0842 -9.65625,-36.8125 l -2.0625,0 z m 536.875,108.25 c 6.582,16.46041 16.1519,30.96941 28.7187,43.53125 12.5664,12.56213 27.08,22.13661 43.5313,28.71875 l -6.8125,6.8125 c -4.7427,3.05257 -42.3728,15.20479 -72.875,0 9.1705,-19.61074 -4.6116,-50.4115 0,-71.625 l 7.4375,-7.4375 z"
       transform="translate(826.66833,255.97581)"
       id="rect6715"
       clip-path="url(#clipPath6749)"
       inkscape:connector-curvature="0" />
    <path
       style="fill:#383838;fill-opacity:1;stroke:none"
       d="m 1104.6879,658.57009 102.8614,116.66145 c 339.8175,40.27324 792.5873,-214.29133 1176.7962,-44.80846 -208.7512,-187.28535 -849.5439,-17.49956 -1279.6576,-71.85299 z"
       id="path3058"
       inkscape:connector-curvature="0"
       sodipodi:nodetypes="cccc" />
    <path
       sodipodi:nodetypes="ascsacca"
       inkscape:connector-curvature="0"
       id="path3842"
       d="m 1878.3555,712.24256 c 1.555,-2.24353 3.6196,-3.35069 7.0448,-4.17554 91.6946,-22.08216 221.6625,-36.72192 296.3761,0.49229 -112.8188,-23.64834 -199.628,6.93648 -289.273,29.87944 -2.9287,0.74954 -5.9325,0.6737 -8.2387,-0.84359 -1.6213,-1.06664 -2.8371,-5.08395 -2.8371,-5.08395 l -4.0834,-14.59696 c -0.4652,-1.70591 -0.083,-4.09337 1.0113,-5.67169 z"
       style="fill:#383838;fill-opacity:1;stroke:none" />
  </g>
</svg>
